<svg xmlns="http://www.w3.org/2000/svg" xmlns:xlink="http://www.w3.org/1999/xlink" version="1.1" width="1000"
     height="1000" viewBox="0 0 1000 1000" xml:space="preserve">
<g transform="matrix(0 16.7315 -16.7315 0 499.9998 500.0004)" id="798093">
<path
  style="stroke: none; stroke-width: 1; stroke-dasharray: none; stroke-linecap: butt; stroke-dashoffset: 0; stroke-linejoin: miter; stroke-miterlimit: 4; is-custom-font: none; font-file-url: none; fill: rgb(33,33,33); fill-rule: nonzero; opacity: 1;"
  vector-effect="non-scaling-stroke" transform=" translate(-31.9996, -31.9995)"
  d="M 27.140625 18.265625 C 27.136719 18.265625 27.125 18.269531 27.113281 18.269531 C 27.003906 18.273438 26.613281 18.28125 26.398438 18.328125 C 26.160156 18.382812 25.925781 18.457031 25.714844 18.582031 C 25.402344 18.769531 25.136719 19.035156 24.894531 19.308594 C 24.691406 19.535156 24.535156 19.800781 24.371094 20.058594 C 24.300781 20.160156 24.214844 20.253906 24.179688 20.371094 C 24.175781 20.386719 24.167969 20.402344 24.164062 20.417969 C 20.257812 20.429688 16.351562 20.457031 12.445312 20.546875 C 10.097656 20.625 7.796875 21.804688 6.515625 23.792969 C 5.964844 24.4375 5.613281 25.195312 5.453125 26.015625 C 4.539062 28.484375 4.929688 31.175781 4.847656 33.75 C 4.769531 35.808594 5.199219 37.875 6.132812 39.703125 C 7.214844 41.40625 8.832031 42.929688 10.902344 43.238281 C 13.800781 43.84375 16.785156 43.5 19.722656 43.597656 C 21.207031 43.597656 22.6875 43.597656 24.167969 43.597656 C 24.171875 43.605469 24.175781 43.617188 24.179688 43.625 C 24.214844 43.742188 24.300781 43.839844 24.371094 43.941406 C 24.535156 44.195312 24.691406 44.460938 24.894531 44.6875 C 25.136719 44.960938 25.402344 45.230469 25.714844 45.417969 C 25.925781 45.542969 26.160156 45.617188 26.398438 45.667969 C 26.613281 45.71875 27.003906 45.726562 27.113281 45.730469 C 27.160156 45.738281 27.214844 45.730469 27.25 45.703125 C 27.285156 45.679688 27.296875 45.652344 27.304688 45.589844 C 27.3125 45.53125 27.304688 45.503906 27.265625 45.355469 C 27.226562 45.203125 27.128906 44.9375 27.027344 44.699219 C 26.925781 44.460938 26.753906 44.128906 26.640625 43.921875 C 26.570312 43.789062 26.511719 43.6875 26.453125 43.597656 C 28.382812 43.597656 30.308594 43.597656 32.238281 43.597656 C 32.242188 43.609375 32.25 43.617188 32.257812 43.625 C 32.304688 43.671875 32.367188 43.734375 32.492188 43.777344 C 32.617188 43.824219 32.621094 43.8125 32.996094 43.828125 C 33.371094 43.847656 34.324219 43.839844 34.601562 43.824219 C 34.878906 43.808594 34.929688 43.804688 35.066406 43.75 C 35.175781 43.707031 35.261719 43.683594 35.277344 43.601562 C 38.214844 43.601562 41.152344 43.597656 44.089844 43.585938 C 44.199219 43.625 44.222656 43.613281 44.578125 43.632812 C 44.953125 43.652344 45.910156 43.644531 46.1875 43.625 C 46.417969 43.613281 46.492188 43.605469 46.585938 43.574219 C 49.011719 43.558594 51.441406 43.535156 53.867188 43.5 C 55.5625 43.503906 57.25 42.449219 57.820312 40.816406 C 59.273438 37.226562 59.25 33.25 59.097656 29.4375 C 58.910156 26.949219 58.589844 24.328125 57.238281 22.179688 C 56.03125 20.46875 53.703125 20.417969 51.804688 20.425781 C 50.019531 20.40625 48.230469 20.398438 46.445312 20.394531 C 46.382812 20.386719 46.308594 20.378906 46.1875 20.371094 C 45.910156 20.355469 44.953125 20.347656 44.578125 20.367188 C 44.332031 20.378906 44.25 20.378906 44.183594 20.390625 C 41.894531 20.386719 39.609375 20.394531 37.320312 20.394531 C 36.640625 20.398438 35.960938 20.398438 35.28125 20.402344 C 35.265625 20.3125 35.179688 20.292969 35.066406 20.25 C 34.929688 20.195312 34.878906 20.191406 34.601562 20.175781 C 34.324219 20.15625 33.371094 20.152344 32.996094 20.167969 C 32.621094 20.1875 32.617188 20.175781 32.492188 20.21875 C 32.367188 20.261719 32.304688 20.324219 32.257812 20.371094 C 32.25 20.382812 32.238281 20.394531 32.230469 20.40625 C 30.300781 20.410156 28.375 20.410156 26.445312 20.414062 C 26.507812 20.320312 26.566406 20.214844 26.640625 20.078125 C 26.753906 19.867188 26.925781 19.539062 27.027344 19.300781 C 27.128906 19.058594 27.226562 18.796875 27.265625 18.644531 C 27.304688 18.492188 27.3125 18.46875 27.304688 18.40625 C 27.296875 18.347656 27.285156 18.320312 27.25 18.292969 C 27.226562 18.277344 27.191406 18.269531 27.160156 18.265625 C 27.152344 18.265625 27.148438 18.265625 27.140625 18.265625 Z M 33.714844 20.402344 C 33.785156 20.402344 33.867188 20.402344 33.945312 20.402344 C 33.832031 20.40625 33.722656 20.402344 33.613281 20.402344 C 33.648438 20.402344 33.683594 20.402344 33.714844 20.402344 Z M 53.917969 21.316406 C 54.414062 21.304688 54.976562 21.378906 55.28125 21.535156 C 56.023438 21.914062 56.464844 22.5 56.640625 23.328125 C 56.695312 23.597656 56.832031 23.988281 56.9375 24.199219 C 57.253906 24.828125 57.546875 25.734375 57.519531 26.007812 L 57.496094 26.257812 L 57.246094 26.027344 C 57.109375 25.898438 56.878906 25.53125 56.730469 25.210938 C 55.886719 23.355469 54.753906 22.273438 53.03125 21.667969 C 52.882812 21.613281 52.882812 21.609375 53.023438 21.503906 C 53.183594 21.386719 53.53125 21.328125 53.917969 21.316406 Z M 27.125 21.472656 C 27.285156 21.472656 27.46875 21.472656 27.675781 21.472656 C 29.039062 21.476562 31.3125 21.507812 33.695312 21.558594 L 35.394531 21.589844 L 36.058594 22.632812 C 36.421875 23.203125 36.730469 23.722656 36.742188 23.792969 C 36.765625 23.914062 36.757812 23.914062 36.230469 23.902344 C 35.933594 23.898438 35.164062 23.878906 34.523438 23.855469 C 32.707031 23.789062 29.902344 23.496094 28.132812 23.191406 L 27.425781 23.070312 L 27.199219 22.714844 C 27.074219 22.523438 26.839844 22.183594 26.683594 21.960938 C 26.523438 21.734375 26.382812 21.53125 26.371094 21.5 C 26.367188 21.488281 26.640625 21.476562 27.125 21.472656 Z M 11.175781 21.53125 C 11.308594 21.53125 11.453125 21.53125 11.621094 21.53125 C 13.429688 21.539062 13.75 21.679688 13.058594 22.144531 C 12.660156 22.414062 10.089844 23.972656 9.050781 24.578125 C 8.167969 25.09375 7.820312 25.390625 7.425781 25.964844 C 7.265625 26.195312 7.023438 26.4375 6.882812 26.5 C 6.625 26.625 6.222656 26.660156 6.132812 26.570312 C 6.105469 26.542969 6.078125 26.316406 6.078125 26.066406 C 6.078125 25.585938 6.226562 25.226562 6.753906 24.390625 C 7.191406 23.707031 8.035156 22.746094 8.535156 22.371094 C 8.792969 22.175781 9.289062 21.90625 9.636719 21.773438 C 10.1875 21.558594 10.265625 21.53125 11.175781 21.53125 Z M 38.363281 21.632812 C 38.570312 21.632812 38.894531 21.640625 39.398438 21.652344 C 43.609375 21.761719 46.351562 21.851562 46.382812 21.890625 C 46.441406 21.949219 46.597656 22.914062 46.597656 23.207031 C 46.597656 23.660156 46.632812 23.648438 45.070312 23.730469 C 44.023438 23.785156 40.058594 23.90625 39.117188 23.914062 C 39.023438 23.914062 38.925781 23.734375 38.535156 22.863281 C 38.273438 22.285156 38.046875 21.769531 38.023438 21.714844 C 38.003906 21.660156 38.019531 21.636719 38.363281 21.632812 Z M 48.90625 22.238281 C 48.996094 22.238281 49.109375 22.242188 49.253906 22.253906 C 49.816406 22.300781 51.15625 22.488281 51.230469 22.535156 C 51.386719 22.632812 50.574219 22.921875 49.578125 23.121094 C 48.839844 23.273438 48.753906 23.28125 48.570312 23.207031 C 48.398438 23.136719 48.367188 22.933594 48.472656 22.613281 C 48.5625 22.339844 48.632812 22.25 48.90625 22.238281 Z M 19.066406 22.707031 C 19.308594 22.707031 25.945312 24.164062 27.09375 24.472656 C 27.871094 24.679688 29.296875 25.160156 30.261719 25.542969 C 32.460938 26.410156 33.582031 26.707031 34.691406 26.707031 C 35.535156 26.707031 35.585938 26.730469 36.277344 27.46875 L 36.988281 28.230469 L 36.988281 35.792969 L 36.292969 36.535156 L 35.601562 37.277344 L 34.257812 37.355469 C 33.195312 37.417969 32.605469 37.554688 31.453125 38.003906 C 28.578125 39.121094 26.710938 39.667969 23.222656 40.410156 C 21.277344 40.828125 19.53125 41.203125 19.34375 41.246094 C 19.066406 41.308594 18.945312 41.210938 18.707031 40.746094 C 18.34375 40.027344 17.542969 37.53125 17.316406 36.398438 C 16.808594 33.894531 16.847656 29.441406 17.394531 27.246094 C 17.902344 25.195312 18.820312 22.707031 19.066406 22.707031 Z M 54.71875 23.496094 C 55.140625 23.472656 55.269531 23.839844 55.730469 24.707031 C 56.988281 27.0625 57.371094 29.09375 57.253906 32.832031 C 57.160156 35.765625 56.910156 36.890625 55.894531 38.957031 C 55.007812 40.757812 54.984375 40.769531 53.679688 40.148438 C 53.085938 39.863281 52.203125 39.484375 51.71875 39.300781 C 51.230469 39.121094 50.832031 38.941406 50.832031 38.910156 C 50.832031 38.875 51.074219 38.371094 51.367188 37.789062 C 52.289062 35.957031 52.589844 34.503906 52.582031 31.9375 C 52.574219 29.367188 52.300781 28.09375 51.371094 26.246094 C 51.066406 25.636719 50.835938 25.117188 50.863281 25.097656 C 50.886719 25.074219 51.804688 24.667969 52.894531 24.191406 C 53.878906 23.761719 54.386719 23.511719 54.71875 23.496094 Z M 6.316406 37.355469 C 6.375 37.351562 6.449219 37.363281 6.542969 37.382812 C 7 37.492188 7.070312 37.546875 7.453125 38.078125 C 7.914062 38.707031 8.171875 38.914062 9.308594 39.570312 C 10.992188 40.546875 13.257812 41.964844 13.339844 42.097656 C 13.515625 42.378906 13.304688 42.425781 11.75 42.445312 C 10.464844 42.457031 10.21875 42.441406 9.871094 42.3125 C 8.695312 41.890625 7.765625 41.09375 6.882812 39.773438 C 6.238281 38.800781 6.085938 38.445312 6.082031 37.917969 C 6.082031 37.527344 6.132812 37.371094 6.316406 37.355469 Z M 57.496094 37.757812 L 57.515625 37.988281 C 57.542969 38.253906 57.222656 39.265625 56.945312 39.765625 C 56.84375 39.953125 56.710938 40.351562 56.648438 40.648438 C 56.382812 41.921875 55.402344 42.707031 54.113281 42.6875 C 53.859375 42.683594 53.542969 42.65625 53.414062 42.625 C 53.285156 42.59375 53.113281 42.53125 53.03125 42.484375 C 52.890625 42.40625 52.898438 42.394531 53.113281 42.308594 C 54.109375 41.90625 54.660156 41.570312 55.1875 41.050781 C 55.816406 40.429688 56.210938 39.855469 56.722656 38.808594 C 56.917969 38.410156 57.171875 38.011719 57.285156 37.921875 Z M 39.003906 40.089844 L 40.09375 40.105469 C 41.417969 40.121094 44.019531 40.210938 45.425781 40.289062 C 46.265625 40.335938 46.472656 40.363281 46.527344 40.433594 C 46.621094 40.554688 46.609375 41.03125 46.5 41.613281 L 46.40625 42.101562 L 46.160156 42.140625 C 45.921875 42.175781 43.085938 42.257812 39.667969 42.332031 C 38.484375 42.355469 37.996094 42.351562 38.007812 42.308594 C 38.019531 42.277344 38.25 41.765625 38.515625 41.171875 Z M 35.785156 40.113281 C 36.371094 40.113281 36.753906 40.136719 36.753906 40.191406 C 36.753906 40.261719 35.554688 42.199219 35.425781 42.335938 C 35.359375 42.40625 33.96875 42.441406 27.902344 42.53125 L 26.316406 42.558594 L 26.535156 42.25 C 26.660156 42.082031 26.910156 41.714844 27.089844 41.4375 C 27.289062 41.128906 27.464844 40.921875 27.53125 40.90625 C 28.148438 40.769531 30.5 40.457031 31.96875 40.3125 C 33.257812 40.191406 34.804688 40.117188 35.785156 40.113281 Z M 48.855469 40.773438 C 49.082031 40.777344 49.402344 40.832031 49.84375 40.933594 C 50.9375 41.179688 51.492188 41.425781 51.128906 41.5 C 50.773438 41.574219 49.738281 41.703125 49.222656 41.734375 L 48.671875 41.765625 L 48.5625 41.585938 C 48.5 41.488281 48.4375 41.3125 48.417969 41.195312 C 48.367188 40.902344 48.480469 40.769531 48.855469 40.773438 Z M 48.855469 40.773438"
  stroke-linecap="round"/>
</g>
</svg>
